<?xml version="1.0" encoding="UTF-8" standalone="no"?>
<svg
   xmlns:dc="http://purl.org/dc/elements/1.1/"
   xmlns:cc="http://creativecommons.org/ns#"
   xmlns:rdf="http://www.w3.org/1999/02/22-rdf-syntax-ns#"
   xmlns:svg="http://www.w3.org/2000/svg"
   xmlns="http://www.w3.org/2000/svg"
   xmlns:sodipodi="http://sodipodi.sourceforge.net/DTD/sodipodi-0.dtd"
   xmlns:inkscape="http://www.inkscape.org/namespaces/inkscape"
   width="120px"
   height="40px"
   viewBox="0 0 120 40"
   version="1.1"
   id="svg94"
   sodipodi:docname="newlogo grey small.svg"
   inkscape:version="1.0.2-2 (e86c870879, 2021-01-15)">
  <metadata
     id="metadata98">
    <rdf:RDF>
      <cc:Work
         rdf:about="">
        <dc:format>image/svg+xml</dc:format>
        <dc:type
           rdf:resource="http://purl.org/dc/dcmitype/StillImage" />
        <dc:title>logo</dc:title>
      </cc:Work>
    </rdf:RDF>
  </metadata>
  <sodipodi:namedview
     pagecolor="#ffffff"
     bordercolor="#666666"
     borderopacity="1"
     objecttolerance="10"
     gridtolerance="10"
     guidetolerance="10"
     inkscape:pageopacity="0"
     inkscape:pageshadow="2"
     inkscape:window-width="1920"
     inkscape:window-height="1057"
     id="namedview96"
     showgrid="false"
     inkscape:zoom="5.2583333"
     inkscape:cx="54.766771"
     inkscape:cy="20"
     inkscape:window-x="-8"
     inkscape:window-y="-8"
     inkscape:window-maximized="1"
     inkscape:current-layer="svg94" />
  <title
     id="title55">logo</title>
  <defs
     id="defs85">
    <linearGradient
       x1="4.9587796"
       y1="7.2209313"
       x2="9.897104"
       y2="6.4365463"
       id="linearGradient-1"
       gradientTransform="matrix(1.5634719,0,0,0.63960215,0,8)"
       gradientUnits="userSpaceOnUse">
      <stop
         stop-color="#02AAFF"
         offset="0%"
         id="stop57" />
      <stop
         stop-color="#06DEC6"
         offset="100%"
         id="stop59" />
    </linearGradient>
    <linearGradient
       x1="2.9957152"
       y1="9.2803614"
       x2="10.363186"
       y2="16.277513"
       id="linearGradient-2"
       gradientTransform="matrix(0.8174823,0,0,1.2232681,0,8)"
       gradientUnits="userSpaceOnUse">
      <stop
         stop-color="#C0CFFF"
         offset="0%"
         id="stop62" />
      <stop
         stop-color="#718DEA"
         offset="23.0855968%"
         id="stop64" />
      <stop
         stop-color="#5E7CE0"
         offset="80.5655499%"
         id="stop66" />
      <stop
         stop-color="#001030"
         offset="100%"
         id="stop68" />
    </linearGradient>
    <linearGradient
       x1="29.347129"
       y1="8.6786945"
       x2="33.27884"
       y2="13.311687"
       id="linearGradient-3"
       gradientTransform="matrix(-0.72422612,0,0,-1.3807842,47.478622,30.647444)"
       gradientUnits="userSpaceOnUse">
      <stop
         stop-color="#C0CFFF"
         offset="0%"
         id="stop71" />
      <stop
         stop-color="#718DEA"
         offset="23.0855968%"
         id="stop73" />
      <stop
         stop-color="#5E7CE0"
         offset="76.4470077%"
         id="stop75" />
      <stop
         stop-color="#001030"
         offset="100%"
         id="stop77" />
    </linearGradient>
    <linearGradient
       x1="14.141002"
       y1="22.310282"
       x2="24.231666"
       y2="5.4902989"
       id="linearGradient-4"
       gradientTransform="matrix(0.93707478,0,0,1.0671507,0,8)"
       gradientUnits="userSpaceOnUse">
      <stop
         stop-color="#02AAFF"
         offset="0%"
         id="stop80" />
      <stop
         stop-color="#06DEC6"
         offset="100%"
         id="stop82" />
    </linearGradient>
  </defs>
  <g
     inkscape:groupmode="layer"
     id="layer1"
     inkscape:label="mask">
    <path
       d="M 6.7894799,10.307692 H 12.13361 c 1.328166,0 2.404858,0.92987 2.404858,2.076923 0,1.147053 -1.076692,2.076924 -2.404858,2.076924 H 6.7894799 c -1.3281665,0 -2.4048583,-0.929871 -2.4048583,-2.076924 0,-1.147053 1.0766918,-2.076923 2.4048583,-2.076923 z"
       id="矩形备份-12"
       fill="url(#linearGradient-1)"
       style="fill:#9a9da0;fill-rule:evenodd;stroke:none;stroke-width:1;fill-opacity:1" />
    <path
       d="m 10.675533,10.307692 c -0.548541,0.146982 -0.986672,0.51388 -1.2532398,0.967692 L 4.466,19.857692 l 3.17,5.489 3.113272,7.7e-5 c 1.147053,0 2.076923,0.92987 2.076923,2.076923 0,1.147053 -0.92987,2.076923 -2.076923,2.076923 H 6.5162384 c -0.2836225,0 -0.5539667,-0.05685 -0.8002589,-0.159778 C 5.2681751,29.181277 4.8723393,28.867627 4.6158471,28.42337 L 0.34661632,21.028845 c -0.0453322,-0.07852 -0.0849549,-0.158765 -0.11899693,-0.240261 -0.30885227,-0.6057 -0.314363,-1.350868 0.0509946,-1.983686 l 4.34426921,-7.529514 0.037323,-0.06213 c 0.2553596,-0.408863 0.6527687,-0.730277 1.1452536,-0.882879 l 0.078544,-0.02268 z"
       id="形状结合"
       fill="url(#linearGradient-2)"
       style="fill:#9a9da0;fill-rule:evenodd;stroke:none;stroke-width:1;fill-opacity:1" />
    <path
       d="m 18.401545,29.500521 c 0.548541,-0.146981 0.986671,-0.51388 1.253239,-0.967692 l 4.956293,-8.582308 -4.439491,-7.687867 c -0.573526,-0.993377 -0.23317,-2.263603 0.760207,-2.837129 0.993377,-0.573527 2.263603,-0.233171 2.83713,0.760206 l 4.961538,8.593637 c 0.04533,0.07852 0.08496,0.158765 0.118997,0.240261 0.308852,0.6057 0.314363,1.350868 -0.051,1.983686 l -4.344269,7.529514 -0.03732,0.06213 c -0.25536,0.408863 -0.652769,0.730277 -1.145254,0.882879 l -0.07854,0.02268 z"
       id="形状结合备份"
       fill="url(#linearGradient-3)"
       style="fill:#9a9da0;fill-rule:evenodd;stroke:none;stroke-width:1;fill-opacity:1" />
    <path
       d="m 12.558456,31.200116 -0.04437,0.05035 c -0.299983,0.32884 -0.697477,0.536444 -1.135946,0.556383 l -0.06956,0.0016 c -3.6552152,0 -5.3217189,0 -4.9995108,0 0.483312,0 0.9213185,-0.227922 1.2404163,-0.597278 L 20.926928,8.6083167 20.971298,8.5579616 C 21.271281,8.2291218 21.668775,8.0215172 22.107243,8.0015789 L 22.176806,8 h 4.999511 C 26.693005,8 26.254998,8.2279221 25.9359,8.5972781 Z"
       id="路径"
       fill="url(#linearGradient-4)"
       style="fill:#9a9da0;fill-rule:evenodd;stroke:none;stroke-width:1;fill-opacity:1" />
  </g>
</svg>
