<?xml version="1.0" encoding="UTF-8" standalone="no"?>
<svg
   xmlns:dc="http://purl.org/dc/elements/1.1/"
   xmlns:cc="http://creativecommons.org/ns#"
   xmlns:rdf="http://www.w3.org/1999/02/22-rdf-syntax-ns#"
   xmlns:svg="http://www.w3.org/2000/svg"
   xmlns="http://www.w3.org/2000/svg"
   xmlns:sodipodi="http://sodipodi.sourceforge.net/DTD/sodipodi-0.dtd"
   xmlns:inkscape="http://www.inkscape.org/namespaces/inkscape"
   width="120px"
   height="40px"
   viewBox="0 0 120 40"
   version="1.1"
   id="svg94"
   sodipodi:docname="newlogo grey.svg"
   inkscape:version="1.0.2-2 (e86c870879, 2021-01-15)">
  <metadata
     id="metadata98">
    <rdf:RDF>
      <cc:Work
         rdf:about="">
        <dc:format>image/svg+xml</dc:format>
        <dc:type
           rdf:resource="http://purl.org/dc/dcmitype/StillImage" />
        <dc:title>logo</dc:title>
      </cc:Work>
    </rdf:RDF>
  </metadata>
  <sodipodi:namedview
     pagecolor="#ffffff"
     bordercolor="#666666"
     borderopacity="1"
     objecttolerance="10"
     gridtolerance="10"
     guidetolerance="10"
     inkscape:pageopacity="0"
     inkscape:pageshadow="2"
     inkscape:window-width="1920"
     inkscape:window-height="1057"
     id="namedview96"
     showgrid="false"
     inkscape:zoom="5.2583333"
     inkscape:cx="60"
     inkscape:cy="20"
     inkscape:window-x="-8"
     inkscape:window-y="-8"
     inkscape:window-maximized="1"
     inkscape:current-layer="svg94" />
  <title
     id="title55">logo</title>
  <defs
     id="defs85">
    <linearGradient
       x1="4.9587796"
       y1="7.2209313"
       x2="9.897104"
       y2="6.4365463"
       id="linearGradient-1"
       gradientTransform="matrix(1.5634719,0,0,0.63960215,0,8)"
       gradientUnits="userSpaceOnUse">
      <stop
         stop-color="#02AAFF"
         offset="0%"
         id="stop57" />
      <stop
         stop-color="#06DEC6"
         offset="100%"
         id="stop59" />
    </linearGradient>
    <linearGradient
       x1="2.9957152"
       y1="9.2803614"
       x2="10.363186"
       y2="16.277513"
       id="linearGradient-2"
       gradientTransform="matrix(0.8174823,0,0,1.2232681,0,8)"
       gradientUnits="userSpaceOnUse">
      <stop
         stop-color="#C0CFFF"
         offset="0%"
         id="stop62" />
      <stop
         stop-color="#718DEA"
         offset="23.0855968%"
         id="stop64" />
      <stop
         stop-color="#5E7CE0"
         offset="80.5655499%"
         id="stop66" />
      <stop
         stop-color="#001030"
         offset="100%"
         id="stop68" />
    </linearGradient>
    <linearGradient
       x1="29.347129"
       y1="8.6786945"
       x2="33.27884"
       y2="13.311687"
       id="linearGradient-3"
       gradientTransform="matrix(-0.72422612,0,0,-1.3807842,47.478622,30.647444)"
       gradientUnits="userSpaceOnUse">
      <stop
         stop-color="#C0CFFF"
         offset="0%"
         id="stop71" />
      <stop
         stop-color="#718DEA"
         offset="23.0855968%"
         id="stop73" />
      <stop
         stop-color="#5E7CE0"
         offset="76.4470077%"
         id="stop75" />
      <stop
         stop-color="#001030"
         offset="100%"
         id="stop77" />
    </linearGradient>
    <linearGradient
       x1="14.141002"
       y1="22.310282"
       x2="24.231666"
       y2="5.4902989"
       id="linearGradient-4"
       gradientTransform="matrix(0.93707478,0,0,1.0671507,0,8)"
       gradientUnits="userSpaceOnUse">
      <stop
         stop-color="#02AAFF"
         offset="0%"
         id="stop80" />
      <stop
         stop-color="#06DEC6"
         offset="100%"
         id="stop82" />
    </linearGradient>
  </defs>
  <path
     d="m 43.280006,27.24 c 2.3,0 3.88,-0.88 5.12,-2.9 0.06,-0.12 0.04,-0.2 -0.06,-0.28 l -2.36,-1.32 c -0.12,-0.06 -0.22,0 -0.3,0.14 -0.48,0.8 -1.06,1.34 -1.92,1.34 -0.92,0 -1.44,-0.62 -1.44,-1.58 0,-1 0.6,-4.32 1,-5.16 0.4,-0.8 1,-1.3 1.84,-1.3 0.9,0 1.3,0.5 1.5,1.32 0.02,0.14 0.12,0.18 0.28,0.12 l 2.62,-1.06 c 0.14,-0.06 0.18,-0.14 0.14,-0.26 -0.44,-1.96 -1.88,-3.14 -4.18,-3.14 -2.46,0 -4.22,1.02 -5.28,3.2 -0.78,1.56 -1.34,5.28 -1.34,6.6 0,2.78 1.8,4.28 4.38,4.28 z m 10.3,0 c 2.1,0 3.76,-0.76 4.72,-2.7 0.54,-1.1 0.8,-2.78 0.8,-3.9 0,-2.36 -1.54,-3.62 -3.84,-3.62 -2.1,0 -3.76,0.76 -4.72,2.7 -0.54,1.1 -0.8,2.78 -0.8,3.9 0,2.36 1.54,3.62 3.84,3.62 z m 0.4,-2.66 c -0.74,0 -1.02,-0.42 -1.02,-1.18 0,-0.58 0.3,-2.24 0.58,-2.84 0.32,-0.62 0.76,-0.88 1.32,-0.88 0.72,0 1.02,0.42 1.02,1.18 0,0.58 -0.3,2.24 -0.58,2.84 -0.32,0.62 -0.76,0.88 -1.32,0.88 z m 8.74,2.66 c 1.18,0 2.08,-0.48 2.62,-1.18 h 0.02 l -0.12,0.74 c -0.02,0.12 0.04,0.2 0.16,0.2 h 2.84 c 0.12,0 0.2,-0.08 0.22,-0.2 l 2.34,-13.2 c 0.02,-0.12 -0.06,-0.2 -0.18,-0.2 h -2.86 c -0.1,0 -0.18,0.08 -0.2,0.2 l -0.82,4.62 h -0.02 c -0.28,-0.66 -1.02,-1.2 -2.24,-1.2 -1.58,0 -2.68,0.62 -3.44,2.16 -0.62,1.26 -1.06,3.56 -1.06,4.88 0,1.98 0.84,3.18 2.74,3.18 z m 1.6,-2.66 c -0.72,0 -1.02,-0.44 -1.02,-1.2 0,-0.62 0.32,-2.28 0.58,-2.82 0.3,-0.6 0.72,-0.88 1.32,-0.88 0.72,0 1.02,0.44 1.02,1.2 0,0.62 -0.32,2.28 -0.58,2.82 -0.3,0.6 -0.72,0.88 -1.32,0.88 z m 10.42,2.66 c 1.9,0 3.22,-0.6 4.34,-1.6 0.1,-0.08 0.1,-0.22 0.04,-0.32 l -1.1,-1.4 c -0.06,-0.08 -0.14,-0.1 -0.28,-0.02 -0.68,0.52 -1.48,0.86 -2.26,0.86 -1.04,0 -1.66,-0.38 -1.66,-1.34 0,-0.08 0,-0.16 0.02,-0.24 0.02,-0.08 0.06,-0.12 0.14,-0.12 h 5.62 c 0.12,0 0.22,-0.08 0.24,-0.2 0.2,-1.16 0.26,-1.84 0.26,-2.38 0,-2.24 -1.6,-3.46 -3.8,-3.46 -2.32,0 -3.84,0.9 -4.72,2.74 -0.54,1.08 -0.8,2.66 -0.8,3.88 0,2.4 1.56,3.6 3.96,3.6 z m 2.16,-6.16 h -2.56 c -0.08,0 -0.1,-0.04 -0.08,-0.12 0.04,-0.26 0.1,-0.5 0.18,-0.7 0.3,-0.58 0.82,-0.92 1.5,-0.92 0.74,0 1.18,0.36 1.18,1.16 0,0.12 -0.02,0.3 -0.06,0.46 -0.02,0.08 -0.08,0.12 -0.16,0.12 z m 7.12,5.92 c 0.12,0 0.18,-0.08 0.2,-0.2 l 0.9,-5.06 c 0.02,-0.08 0.06,-0.12 0.12,-0.12 h 3.6 c 0.08,0 0.12,0.04 0.1,0.12 l -0.9,5.06 c -0.02,0.12 0.06,0.2 0.18,0.2 h 3 c 0.12,0 0.2,-0.08 0.22,-0.2 l 2.34,-13.2 c 0.02,-0.12 -0.06,-0.2 -0.18,-0.2 h -3 c -0.12,0 -0.2,0.08 -0.22,0.2 l -0.86,4.88 c -0.02,0.08 -0.06,0.12 -0.14,0.12 h -3.6 c -0.06,0 -0.1,-0.04 -0.08,-0.12 l 0.86,-4.88 c 0.02,-0.12 -0.04,-0.2 -0.16,-0.2 h -3 c -0.12,0 -0.2,0.08 -0.22,0.2 l -2.34,13.2 c -0.02,0.12 0.06,0.2 0.18,0.2 z m 12.44,0.24 c 1.16,0 2.04,-0.48 2.64,-1.18 h 0.02 l -0.14,0.74 c -0.02,0.12 0.06,0.2 0.16,0.2 h 2.860004 c 0.12,0 0.2,-0.08 0.22,-0.2 l 1.64,-9.34 c 0.02,-0.12 -0.04,-0.2 -0.16,-0.2 h -2.86 c -0.12,0 -0.2,0.08 -0.22,0.2 l -0.980004,5.6 c -0.16,0.94 -0.66,1.48 -1.4,1.48 -0.76,0 -1.04,-0.58 -0.88,-1.48 l 0.98,-5.6 c 0.02,-0.12 -0.06,-0.2 -0.18,-0.2 h -2.82 c -0.12,0 -0.2,0.08 -0.22,0.2 l -1.08,6.14 c -0.4,2.16 0.26,3.64 2.42,3.64 z m 13.460004,0 c 1.6,0 2.7,-0.64 3.46,-2.16 0.62,-1.28 1.06,-3.56 1.06,-4.88 0,-1.98 -0.86,-3.18 -2.74,-3.18 -1.18,0 -2.08,0.48 -2.62,1.18 h -0.02 l 0.82,-4.6 c 0.02,-0.12 -0.06,-0.2 -0.18,-0.2 h -2.86 c -0.1,0 -0.18,0.08 -0.2,0.2 l -2.34,13.2 c -0.02,0.12 0.06,0.2 0.16,0.2 h 2.86 c 0.12,0 0.2,-0.08 0.22,-0.2 l 0.14,-0.74 h 0.02 c 0.28,0.66 1,1.18 2.22,1.18 z m -0.7,-2.66 c -0.72,0 -1.02,-0.44 -1.02,-1.2 0,-0.62 0.32,-2.28 0.58,-2.82 0.3,-0.6 0.72,-0.88 1.32,-0.88 0.72,0 1.02,0.44 1.02,1.2 0,0.62 -0.32,2.28 -0.58,2.82 -0.3,0.6 -0.72,0.88 -1.32,0.88 z"
     id="CodeHub"
     fill="#333333"
     fill-rule="nonzero"
     style="stroke:none;stroke-width:1;fill:#9a9da0;fill-opacity:1" />
  <g
     inkscape:groupmode="layer"
     id="layer1"
     inkscape:label="mask">
    <path
       d="M 6.7894799,10.307692 H 12.13361 c 1.328166,0 2.404858,0.92987 2.404858,2.076923 0,1.147053 -1.076692,2.076924 -2.404858,2.076924 H 6.7894799 c -1.3281665,0 -2.4048583,-0.929871 -2.4048583,-2.076924 0,-1.147053 1.0766918,-2.076923 2.4048583,-2.076923 z"
       id="矩形备份-12"
       fill="url(#linearGradient-1)"
       style="fill:#9a9da0;fill-rule:evenodd;stroke:none;stroke-width:1;fill-opacity:1" />
    <path
       d="m 10.675533,10.307692 c -0.548541,0.146982 -0.986672,0.51388 -1.2532398,0.967692 L 4.466,19.857692 l 3.17,5.489 3.113272,7.7e-5 c 1.147053,0 2.076923,0.92987 2.076923,2.076923 0,1.147053 -0.92987,2.076923 -2.076923,2.076923 H 6.5162384 c -0.2836225,0 -0.5539667,-0.05685 -0.8002589,-0.159778 C 5.2681751,29.181277 4.8723393,28.867627 4.6158471,28.42337 L 0.34661632,21.028845 c -0.0453322,-0.07852 -0.0849549,-0.158765 -0.11899693,-0.240261 -0.30885227,-0.6057 -0.314363,-1.350868 0.0509946,-1.983686 l 4.34426921,-7.529514 0.037323,-0.06213 c 0.2553596,-0.408863 0.6527687,-0.730277 1.1452536,-0.882879 l 0.078544,-0.02268 z"
       id="形状结合"
       fill="url(#linearGradient-2)"
       style="fill:#9a9da0;fill-rule:evenodd;stroke:none;stroke-width:1;fill-opacity:1" />
    <path
       d="m 18.401545,29.500521 c 0.548541,-0.146981 0.986671,-0.51388 1.253239,-0.967692 l 4.956293,-8.582308 -4.439491,-7.687867 c -0.573526,-0.993377 -0.23317,-2.263603 0.760207,-2.837129 0.993377,-0.573527 2.263603,-0.233171 2.83713,0.760206 l 4.961538,8.593637 c 0.04533,0.07852 0.08496,0.158765 0.118997,0.240261 0.308852,0.6057 0.314363,1.350868 -0.051,1.983686 l -4.344269,7.529514 -0.03732,0.06213 c -0.25536,0.408863 -0.652769,0.730277 -1.145254,0.882879 l -0.07854,0.02268 z"
       id="形状结合备份"
       fill="url(#linearGradient-3)"
       style="fill:#9a9da0;fill-rule:evenodd;stroke:none;stroke-width:1;fill-opacity:1" />
    <path
       d="m 12.558456,31.200116 -0.04437,0.05035 c -0.299983,0.32884 -0.697477,0.536444 -1.135946,0.556383 l -0.06956,0.0016 c -3.6552152,0 -5.3217189,0 -4.9995108,0 0.483312,0 0.9213185,-0.227922 1.2404163,-0.597278 L 20.926928,8.6083167 20.971298,8.5579616 C 21.271281,8.2291218 21.668775,8.0215172 22.107243,8.0015789 L 22.176806,8 h 4.999511 C 26.693005,8 26.254998,8.2279221 25.9359,8.5972781 Z"
       id="路径"
       fill="url(#linearGradient-4)"
       style="fill:#9a9da0;fill-rule:evenodd;stroke:none;stroke-width:1;fill-opacity:1" />
  </g>
</svg>
