<svg id="Layer1" xmlns="http://www.w3.org/2000/svg" viewBox="0 0 881.415 1024"><defs><style>.cls-1{fill:#020502;}.cls-2{fill:#09720c;}.cls-3{fill:#17dc0f;}</style></defs><path id="_Outline_" data-name="&lt;Outline&gt;" class="cls-1" d="M154.732,126a19.879,19.879,0,0,0,19.908,19.852h.092l95-.7a20.239,20.239,0,0,0,20-20.152V20a20.059,20.059,0,0,1,20-20h115a20.059,20.059,0,0,1,20,20V126a19.891,19.891,0,0,0,19.922,19.862h.078l105-.724a19.892,19.892,0,0,1,20,19.784V270a20.059,20.059,0,0,0,20,20h105a20.059,20.059,0,0,1,20,20V415a20.059,20.059,0,0,0,20,20H861.415a20.059,20.059,0,0,1,20,20V570a20.225,20.225,0,0,1-20,20.136l-106.683.728a20.225,20.225,0,0,0-20,20.136V715a20.227,20.227,0,0,1-20,20.138l-105,.724a20.227,20.227,0,0,0-20,20.138V860a20.059,20.059,0,0,1-20,20h-105a20.059,20.059,0,0,0-20,20v104a20.059,20.059,0,0,1-20,20h-115a20.059,20.059,0,0,1-20-20V901a20.059,20.059,0,0,0-20-20h-95a20.059,20.059,0,0,0-20,20v103a20.059,20.059,0,0,1-20,20H20a20.059,20.059,0,0,1-20-20V20A20.059,20.059,0,0,1,20,0H134.732a20.059,20.059,0,0,1,20,20Z"/><rect id="_Outline_2" data-name="&lt;Outline&gt;" class="cls-2" x="10.732" y="11" width="135" height="135" rx="15"/><rect id="_Outline_3" data-name="&lt;Outline&gt;" class="cls-2" x="155.732" y="446" width="135" height="135" rx="15"/><rect id="_Outline_4" data-name="&lt;Outline&gt;" class="cls-2" x="155.732" y="301" width="135" height="135" rx="15"/><rect id="_Outline_5" data-name="&lt;Outline&gt;" class="cls-2" x="155.732" y="156" width="135" height="135" rx="15"/><rect id="_Outline_6" data-name="&lt;Outline&gt;" class="cls-2" x="10.732" y="881" width="135" height="135" rx="15"/><rect id="_Outline_7" data-name="&lt;Outline&gt;" class="cls-2" x="10.732" y="736" width="135" height="135" rx="15"/><rect id="_Outline_8" data-name="&lt;Outline&gt;" class="cls-2" x="10.732" y="591" width="135" height="135" rx="15"/><rect id="_Outline_9" data-name="&lt;Outline&gt;" class="cls-2" x="10.732" y="446" width="135" height="135" rx="15"/><rect id="_Outline_10" data-name="&lt;Outline&gt;" class="cls-2" x="10.732" y="301" width="135" height="135" rx="15"/><rect id="_Outline_11" data-name="&lt;Outline&gt;" class="cls-2" x="10.732" y="156" width="135" height="135" rx="15"/><rect id="_Outline_12" data-name="&lt;Outline&gt;" class="cls-2" x="300.732" y="445" width="135" height="135" rx="15"/><rect id="_Outline_13" data-name="&lt;Outline&gt;" class="cls-2" x="300.732" y="300" width="135" height="135" rx="15"/><rect id="_Outline_14" data-name="&lt;Outline&gt;" class="cls-2" x="155.732" y="736" width="135" height="135" rx="15"/><rect id="_Outline_15" data-name="&lt;Outline&gt;" class="cls-2" x="155.732" y="591" width="135" height="135" rx="15"/><rect id="_Outline_16" data-name="&lt;Outline&gt;" class="cls-2" x="445.732" y="445" width="135" height="135" rx="15"/><rect id="_Outline_17" data-name="&lt;Outline&gt;" class="cls-2" x="300.732" y="590" width="135" height="135" rx="15"/><rect id="_Outline_18" data-name="&lt;Outline&gt;" class="cls-3" x="300.732" y="155" width="135" height="135" rx="15"/><rect id="_Outline_19" data-name="&lt;Outline&gt;" class="cls-3" x="445.732" y="590" width="135" height="135" rx="15"/><rect id="_Outline_20" data-name="&lt;Outline&gt;" class="cls-3" x="445.732" y="155" width="135" height="135" rx="15"/><rect id="_Outline_21" data-name="&lt;Outline&gt;" class="cls-3" x="445.732" y="300" width="135" height="135" rx="15"/><rect id="_Outline_22" data-name="&lt;Outline&gt;" class="cls-3" x="300.732" y="880" width="135" height="135" rx="15"/><rect id="_Outline_23" data-name="&lt;Outline&gt;" class="cls-3" x="300.732" y="735" width="135" height="135" rx="15"/><rect id="_Outline_24" data-name="&lt;Outline&gt;" class="cls-3" x="300.732" y="10" width="135" height="135" rx="15"/><rect id="_Outline_25" data-name="&lt;Outline&gt;" class="cls-3" x="590.732" y="445" width="135" height="135" rx="15"/><rect id="_Outline_26" data-name="&lt;Outline&gt;" class="cls-3" x="590.732" y="590" width="135" height="135" rx="15"/><rect id="_Outline_27" data-name="&lt;Outline&gt;" class="cls-3" x="445.732" y="735" width="135" height="135" rx="15"/><rect id="_Outline_28" data-name="&lt;Outline&gt;" class="cls-3" x="735.732" y="445" width="135" height="135" rx="15"/><rect id="_Outline_29" data-name="&lt;Outline&gt;" class="cls-3" x="590.732" y="300" width="135" height="135" rx="15"/></svg>