<svg id="Слой_1" data-name="Слой 1" xmlns="http://www.w3.org/2000/svg" viewBox="0 0 881.415 1024"><defs><style>.cls-1{fill:#020502;}.cls-2{fill:#2e7327;}.cls-3{fill:#4de012;}</style></defs><path class="cls-1" d="M163,126a19.88,19.88,0,0,0,20,19.852l95-.7A20.239,20.239,0,0,0,298,125V20A20.059,20.059,0,0,1,318,0H433a20.059,20.059,0,0,1,20,20V126a19.892,19.892,0,0,0,20,19.862l105-.724A19.892,19.892,0,0,1,598,165V270a20.059,20.059,0,0,0,20,20H723a20.059,20.059,0,0,1,20,20V415a20.059,20.059,0,0,0,20,20H869.683a20.059,20.059,0,0,1,20,20V570a20.225,20.225,0,0,1-20,20.136L763,590.864A20.225,20.225,0,0,0,743,611V715a20.227,20.227,0,0,1-20,20.138l-105,.724A20.227,20.227,0,0,0,598,756V860a20.059,20.059,0,0,1-20,20H473a20.059,20.059,0,0,0-20,20v104a20.059,20.059,0,0,1-20,20H318a20.059,20.059,0,0,1-20-20V901a20.059,20.059,0,0,0-20-20H183a20.059,20.059,0,0,0-20,20v103a20.059,20.059,0,0,1-20,20H28.268a20.059,20.059,0,0,1-20-20V20a20.059,20.059,0,0,1,20-20H143a20.059,20.059,0,0,1,20,20Z" transform="translate(-8.268)"/><rect class="cls-2" x="10.732" y="11" width="135" height="135" rx="15"/><rect class="cls-2" x="155.732" y="446" width="135" height="135" rx="15"/><rect class="cls-2" x="155.732" y="301" width="135" height="135" rx="15"/><rect class="cls-2" x="155.732" y="156" width="135" height="135" rx="15"/><rect class="cls-2" x="10.732" y="881" width="135" height="135" rx="15"/><rect class="cls-2" x="10.732" y="736" width="135" height="135" rx="15"/><rect class="cls-2" x="10.732" y="591" width="135" height="135" rx="15"/><rect class="cls-2" x="10.732" y="446" width="135" height="135" rx="15"/><rect class="cls-2" x="10.732" y="301" width="135" height="135" rx="15"/><rect class="cls-2" x="10.732" y="156" width="135" height="135" rx="15"/><rect class="cls-2" x="300.732" y="445" width="135" height="135" rx="15"/><rect class="cls-2" x="300.732" y="300" width="135" height="135" rx="15"/><rect class="cls-2" x="155.732" y="736" width="135" height="135" rx="15"/><rect class="cls-2" x="155.732" y="591" width="135" height="135" rx="15"/><rect class="cls-2" x="445.732" y="445" width="135" height="135" rx="15"/><rect class="cls-2" x="300.732" y="590" width="135" height="135" rx="15"/><rect class="cls-3" x="300.732" y="155" width="135" height="135" rx="15"/><rect class="cls-3" x="445.732" y="590" width="135" height="135" rx="15"/><rect class="cls-3" x="445.732" y="155" width="135" height="135" rx="15"/><rect class="cls-3" x="445.732" y="300" width="135" height="135" rx="15"/><rect class="cls-3" x="300.732" y="880" width="135" height="135" rx="15"/><rect class="cls-3" x="300.732" y="735" width="135" height="135" rx="15"/><rect class="cls-3" x="300.732" y="10" width="135" height="135" rx="15"/><rect class="cls-3" x="590.732" y="445" width="135" height="135" rx="15"/><rect class="cls-3" x="590.732" y="590" width="135" height="135" rx="15"/><rect class="cls-3" x="445.732" y="735" width="135" height="135" rx="15"/><rect class="cls-3" x="735.732" y="445" width="135" height="135" rx="15"/><rect class="cls-3" x="590.732" y="300" width="135" height="135" rx="15"/></svg>