<svg id="Слой_2" data-name="Слой 2" xmlns="http://www.w3.org/2000/svg" viewBox="0 0 2027.513 800"><defs><style>.cls-1{fill:#020502;}.cls-2{fill:#2e7327;}.cls-3{fill:#4de012;}.cls-4{fill:#fff;}</style></defs><path class="cls-1" d="M136.557,109.062a19.88,19.88,0,0,0,20,19.852l65.469-.485a20.239,20.239,0,0,0,20-20.148V35a20.059,20.059,0,0,1,20-20H343.12a20.059,20.059,0,0,1,20,20v74.062a19.893,19.893,0,0,0,20,19.863l73.282-.506a19.892,19.892,0,0,1,20,19.862v73.281a20.059,20.059,0,0,0,20,20h73.281a20.059,20.059,0,0,1,20,20v73.282a20.059,20.059,0,0,0,20,20h74.6a20.059,20.059,0,0,1,20,20v81.094a20.224,20.224,0,0,1-20,20.136l-74.6.508a20.226,20.226,0,0,0-20,20.137v72.5a20.227,20.227,0,0,1-20,20.138l-73.283.5A20.227,20.227,0,0,0,476.4,610v72.5a20.059,20.059,0,0,1-20,20H383.12a20.059,20.059,0,0,0-20,20V795a20.059,20.059,0,0,1-20,20H262.026a20.059,20.059,0,0,1-20-20V723.281a20.059,20.059,0,0,0-20-20H156.557a20.059,20.059,0,0,0-20,20V795a20.059,20.059,0,0,1-20,20H35.673a20.059,20.059,0,0,1-20-20V35a20.059,20.059,0,0,1,20-20h80.884a20.059,20.059,0,0,1,20,20Z" transform="translate(-15.673 -15)"/><rect class="cls-2" x="8.384" y="8.594" width="105.469" height="105.469" rx="15"/><rect class="cls-2" x="121.665" y="348.438" width="105.469" height="105.469" rx="15"/><rect class="cls-2" x="121.665" y="235.156" width="105.469" height="105.469" rx="15"/><rect class="cls-2" x="121.665" y="121.875" width="105.469" height="105.469" rx="15"/><rect class="cls-2" x="8.384" y="688.281" width="105.469" height="105.469" rx="15"/><rect class="cls-2" x="8.384" y="575" width="105.469" height="105.469" rx="15"/><rect class="cls-2" x="8.384" y="461.719" width="105.469" height="105.469" rx="15"/><rect class="cls-2" x="8.384" y="348.438" width="105.469" height="105.469" rx="15"/><rect class="cls-2" x="8.384" y="235.156" width="105.469" height="105.469" rx="15"/><rect class="cls-2" x="8.384" y="121.875" width="105.469" height="105.469" rx="15"/><rect class="cls-2" x="234.947" y="347.656" width="105.469" height="105.469" rx="15"/><rect class="cls-2" x="234.947" y="234.375" width="105.469" height="105.469" rx="15"/><rect class="cls-2" x="121.665" y="575" width="105.469" height="105.469" rx="15"/><rect class="cls-2" x="121.665" y="461.719" width="105.469" height="105.469" rx="15"/><rect class="cls-2" x="348.228" y="347.656" width="105.469" height="105.469" rx="15"/><rect class="cls-2" x="234.947" y="460.938" width="105.469" height="105.469" rx="15"/><rect class="cls-3" x="234.947" y="121.094" width="105.469" height="105.469" rx="15"/><rect class="cls-3" x="348.228" y="460.938" width="105.469" height="105.469" rx="15"/><rect class="cls-3" x="348.228" y="121.094" width="105.469" height="105.469" rx="15"/><rect class="cls-3" x="348.228" y="234.375" width="105.469" height="105.469" rx="15"/><rect class="cls-3" x="234.947" y="687.5" width="105.469" height="105.469" rx="15"/><rect class="cls-3" x="234.947" y="574.219" width="105.469" height="105.469" rx="15"/><rect class="cls-3" x="234.947" y="7.813" width="105.469" height="105.469" rx="15"/><rect class="cls-3" x="461.509" y="347.656" width="105.469" height="105.469" rx="15"/><rect class="cls-3" x="461.509" y="460.938" width="105.469" height="105.469" rx="15"/><rect class="cls-3" x="348.228" y="574.219" width="105.469" height="105.469" rx="15"/><rect class="cls-3" x="574.79" y="347.656" width="105.469" height="105.469" rx="15"/><rect class="cls-3" x="461.509" y="234.375" width="105.469" height="105.469" rx="15"/><path class="cls-4" d="M952.058,278a67.18,67.18,0,0,1-16.3,23.849,75.209,75.209,0,0,1-25.573,15.5,94.842,94.842,0,0,1-33.257,5.565q-18.553,0-33.39-5.565a72.509,72.509,0,0,1-25.175-15.5A67.31,67.31,0,0,1,802.466,278a82.441,82.441,0,0,1-5.565-30.873V130.261h45.05V243.416a52.32,52.32,0,0,0,1.987,14.575,37.316,37.316,0,0,0,6.1,12.322,28.553,28.553,0,0,0,10.865,8.613,43.352,43.352,0,0,0,32.6,0,29.729,29.729,0,0,0,11-8.613,34.306,34.306,0,0,0,6.094-12.322,55.936,55.936,0,0,0,1.855-14.575V130.261h45.316V247.126A80.77,80.77,0,0,1,952.058,278Z" transform="translate(-15.673 -15)"/><path class="cls-4" d="M1113.574,317.881l-75.526-122.695h-.8l1.06,122.695H994.324V130.261H1046l75.259,122.43h.8l-1.06-122.43h43.989v187.62Z" transform="translate(-15.673 -15)"/><path class="cls-4" d="M1203.672,317.881V130.261h45.579v187.62Z" transform="translate(-15.673 -15)"/><path class="cls-4" d="M1368.234,168.951v148.93H1322.92V168.951h-53v-38.69h151.314v38.69Z" transform="translate(-15.673 -15)"/><path class="cls-4" d="M1522.2,168.951v148.93h-45.315V168.951h-53v-38.69H1575.2v38.69Z" transform="translate(-15.673 -15)"/><path class="cls-4" d="M1595.867,317.881V130.261h126.14v38.16h-82.415v35.51h77.91v36.3h-77.91v38.955h87.184v38.69Z" transform="translate(-15.673 -15)"/><path class="cls-4" d="M1855.83,179.021a40.971,40.971,0,0,0-15.237-11.792,42.985,42.985,0,0,0-18.153-4.373,53.987,53.987,0,0,0-9.142.8,23.63,23.63,0,0,0-8.348,3.047,20.607,20.607,0,0,0-6.227,5.83,15.5,15.5,0,0,0-2.518,9.143,14.742,14.742,0,0,0,1.987,7.95,17.688,17.688,0,0,0,5.83,5.565,51.857,51.857,0,0,0,9.143,4.373q5.3,1.986,11.925,4.107,9.54,3.18,19.875,7.022a74.419,74.419,0,0,1,18.815,10.2,53.618,53.618,0,0,1,14.045,15.767q5.565,9.411,5.565,23.453,0,16.167-5.962,27.957a55.748,55.748,0,0,1-16.033,19.478,68.675,68.675,0,0,1-23.055,11.395,97.017,97.017,0,0,1-26.765,3.71,110.564,110.564,0,0,1-38.955-7.023q-18.819-7.018-31.27-20.007l29.68-30.21a54.739,54.739,0,0,0,18.153,14.177,49.212,49.212,0,0,0,22.392,5.7,45,45,0,0,0,9.805-1.06,24.408,24.408,0,0,0,8.348-3.445,17.28,17.28,0,0,0,5.7-6.36,20.036,20.036,0,0,0,2.12-9.54,15.122,15.122,0,0,0-2.65-9.01,25.971,25.971,0,0,0-7.552-6.758,61.247,61.247,0,0,0-12.191-5.565q-7.292-2.514-16.562-5.432a157.637,157.637,0,0,1-17.622-6.89,58.93,58.93,0,0,1-15.37-10.2,47.18,47.18,0,0,1-10.866-15.1q-4.111-8.875-4.107-21.6,0-15.633,6.36-26.765a55.285,55.285,0,0,1,16.7-18.285A71.784,71.784,0,0,1,1797,128.8a105.76,105.76,0,0,1,26.235-3.312,97.472,97.472,0,0,1,32.462,5.83,83.7,83.7,0,0,1,29.018,17.225Z" transform="translate(-15.673 -15)"/><path class="cls-4" d="M1990.186,168.951v148.93h-45.315V168.951h-53v-38.69h151.315v38.69Z" transform="translate(-15.673 -15)"/><path class="cls-4" d="M1303.709,531.291q0,15.372-6.1,25.838a48.389,48.389,0,0,1-16.164,16.827,70.511,70.511,0,0,1-22.923,9.142,124.281,124.281,0,0,1-26.367,2.783h-74.73V398.261h74.73a114.953,114.953,0,0,1,22.259,2.252,66.01,66.01,0,0,1,20.67,7.685,43.783,43.783,0,0,1,15.105,14.708q5.827,9.279,5.83,23.584,0,15.64-8.48,25.838a47.312,47.312,0,0,1-22.259,14.707v.531a51.489,51.489,0,0,1,14.972,4.9,43.3,43.3,0,0,1,12.19,9.142,42.8,42.8,0,0,1,8.215,12.985A43.647,43.647,0,0,1,1303.709,531.291Zm-51.41-78.705q0-9.539-7.287-13.912t-21.6-4.373h-22.261V472.99h24.381q12.72,0,19.742-5.167T1252.3,452.586Zm6.1,74.465q0-11.658-8.746-16.165t-23.319-4.505h-25.176v42.93h25.44a68.189,68.189,0,0,0,11-.928,34.56,34.56,0,0,0,10.335-3.313,19.884,19.884,0,0,0,7.552-6.757Q1258.392,533.941,1258.4,527.051Z" transform="translate(-15.673 -15)"/><path class="cls-4" d="M1529.223,491.275a104.632,104.632,0,0,1-7.686,40.678,92.619,92.619,0,0,1-21.332,31.535,94.961,94.961,0,0,1-32.463,20.273,119.582,119.582,0,0,1-81.487,0,95.172,95.172,0,0,1-32.329-20.273,92.522,92.522,0,0,1-21.333-31.535q-7.689-18.415-7.685-40.678,0-22.519,7.685-40.677a89.03,89.03,0,0,1,21.333-30.872,95.053,95.053,0,0,1,32.329-19.61,123.912,123.912,0,0,1,81.487,0,94.861,94.861,0,0,1,32.463,19.61,89.121,89.121,0,0,1,21.332,30.872Q1529.222,468.753,1529.223,491.275Zm-48.495,0a64.394,64.394,0,0,0-3.976-22.789,54.343,54.343,0,0,0-11-18.152,50.781,50.781,0,0,0-16.96-11.926,53.689,53.689,0,0,0-21.862-4.373,52.154,52.154,0,0,0-38.691,16.3,51.578,51.578,0,0,0-11,18.152,66.353,66.353,0,0,0-3.843,22.789,67.062,67.062,0,0,0,3.975,23.454,55.512,55.512,0,0,0,11,18.417A50.138,50.138,0,0,0,1405.2,545.2a56.174,56.174,0,0,0,43.459,0,51.641,51.641,0,0,0,16.961-12.057,54.371,54.371,0,0,0,11.129-18.417A67.039,67.039,0,0,0,1480.728,491.275Z" transform="translate(-15.673 -15)"/><path class="cls-4" d="M1631.513,436.951v148.93H1586.2V436.951h-53v-38.69h151.316v38.69Z" transform="translate(-15.673 -15)"/></svg>